<svg xmlns="http://www.w3.org/2000/svg" width="24" height="24" viewBox="0 0 24 24" fill="none" stroke="#1a73e8" stroke-width="2" stroke-linecap="round" stroke-linejoin="round">
  <!-- Folder with document emerging — "open file" -->
  <path d="M22 19a2 2 0 0 1-2 2H4a2 2 0 0 1-2-2V5a2 2 0 0 1 2-2h5l2 3h9a2 2 0 0 1 2 2z"
        fill="#1a73e8" fill-opacity="0.1"/>
  <rect x="7" y="2" width="11" height="12" rx="1" fill="white" stroke="#1a73e8" stroke-width="1.5"/>
  <path d="M15 2v3a1 1 0 0 0 1 1h3" fill="none" stroke="#1a73e8" stroke-width="1.5"/>
  <line x1="9" y1="6" x2="15" y2="6" stroke="#1a73e8" stroke-width="1" stroke-opacity="0.4"/>
  <line x1="9" y1="9" x2="13" y2="9" stroke="#1a73e8" stroke-width="1" stroke-opacity="0.4"/>
</svg>
