<svg xmlns="http://www.w3.org/2000/svg" width="24" height="24" viewBox="0 0 24 24" fill="none" stroke="#1a73e8" stroke-width="2" stroke-linecap="round" stroke-linejoin="round">
  <!-- Export JSON: document with { } symbol -->
  <path d="M14 2H6a2 2 0 0 0-2 2v16a2 2 0 0 0 2 2h12a2 2 0 0 0 2-2V8l-6-6z"
        fill="#1a73e8" fill-opacity="0.08"/>
  <path d="M14 2v6h6"/>
  <path d="M9 13c0-1.1.9-2 2-2s2 .9 2 2c0 .7-.4 1.4-1 1.7.3.3.7.8.7 1.3 0 1.1-.9 2-2 2s-2-.9-2-2" stroke-width="1.5"/>
  <circle cx="11.7" cy="12.5" r="0.3" fill="#1a73e8" stroke="none"/>
  <circle cx="10.3" cy="15.5" r="0.3" fill="#1a73e8" stroke="none"/>
  <path d="M17 15l3 3m0-3l-3 3" stroke-width="1.8" stroke="#1a73e8"/>
</svg>
